<svg xmlns="http://www.w3.org/2000/svg" width="59.417" height="59.417" viewBox="0 0 59.417 59.417">
  <g id="Group_3" data-name="Group 3" transform="translate(1.05 0.621)">
    <path id="Path_21" data-name="Path 21" d="M609.116,1100.907c.823-2.973-1.349-3.738-1.952-3.24-2.339,1.929-6.373,10.672-8.152,8.023-3.457-5.152-.966-15.217-2.42-21.418-.4-1.707-2.978-1.651-3.346-.2-.638,2.5-.732,21.119-1.082,19.686-.1-.41.38-18.6-.75-22.343-.255-.842-2.96-.782-3.425.584-1.012,2.973-.421,22.218-.837,22.114-.317-.079-.365-17.564-1.212-18.562a1.755,1.755,0,0,0-2.315.116c-.81.81-1.411,19.921-1.411,19.921-.748-.7.471-11.082-.185-11.9a1.391,1.391,0,0,0-1.685-.071c-1.046.951-3.036,30.2,6.634,31.771C597.967,1127.16,606.107,1111.782,609.116,1100.907Z" transform="translate(-563.241 -1074.563)" fill="none" stroke="#4caa47" stroke-width="1.417"/>
    <circle id="Ellipse_2" data-name="Ellipse 2" cx="29" cy="29" r="29" transform="translate(-0.341 0.088)" fill="none" stroke="#4caa47" stroke-width="1.417"/>
  </g>
</svg>
