<svg xmlns="http://www.w3.org/2000/svg" width="28.972" height="25.776" viewBox="0 0 28.972 25.776">
  <path id="heart_1_" data-name="heart (1)" d="M14.486,25.776a1.7,1.7,0,0,1-1.12-.421c-1.17-1.023-2.3-1.985-3.294-2.833l-.005,0a61.267,61.267,0,0,1-7.193-6.751A10.783,10.783,0,0,1,0,8.707,9.055,9.055,0,0,1,2.3,2.523,7.791,7.791,0,0,1,8.094,0a7.287,7.287,0,0,1,4.552,1.571,9.313,9.313,0,0,1,1.84,1.922,9.314,9.314,0,0,1,1.841-1.922A7.287,7.287,0,0,1,20.879,0a7.791,7.791,0,0,1,5.8,2.522,9.055,9.055,0,0,1,2.3,6.184A10.782,10.782,0,0,1,26.1,15.765a61.26,61.26,0,0,1-7.192,6.751c-1,.85-2.127,1.813-3.3,2.839a1.7,1.7,0,0,1-1.12.42ZM8.094,1.7A6.112,6.112,0,0,0,3.546,3.673,7.366,7.366,0,0,0,1.7,8.707,9.073,9.073,0,0,0,4.18,14.683a60.291,60.291,0,0,0,6.987,6.543l.005,0c1,.852,2.132,1.817,3.311,2.848,1.186-1.033,2.321-2,3.322-2.853a60.306,60.306,0,0,0,6.987-6.542,9.074,9.074,0,0,0,2.483-5.976,7.366,7.366,0,0,0-1.849-5.034A6.112,6.112,0,0,0,20.879,1.7a5.629,5.629,0,0,0-3.514,1.217A8.235,8.235,0,0,0,15.406,5.18a1.071,1.071,0,0,1-1.84,0,8.228,8.228,0,0,0-1.958-2.266A5.628,5.628,0,0,0,8.094,1.7Zm0,0" transform="translate(0 0)" fill="#dfdfdf"/>
</svg>
