<svg xmlns="http://www.w3.org/2000/svg" width="286.139" height="30.805" viewBox="0 0 286.139 30.805">
  <g id="Group_52" data-name="Group 52" transform="translate(-55.197 -36.649)">
    <path id="Path_1" data-name="Path 1" d="M82.361,36.649,78.444,67.177H70.5L68.1,50.338,65.829,67.177H58.986L55.2,36.649h6.028L62.91,50.742l2.314-14.093h7.557l1.826,14.093,2.26-14.093Z" fill="#4caa47"/>
    <path id="Path_2" data-name="Path 2" d="M94.141,67.177H87.435V36.649h6.706Z" transform="translate(-4.35)" fill="#4caa47"/>
    <path id="Path_3" data-name="Path 3" d="M96.663,54.915h5.918v7.536q0,.746.937.745t.937-.745v-25.8h6.705V61.961q0,5.493-7.6,5.492a8.815,8.815,0,0,1-4.8-1.32,3.965,3.965,0,0,1-2.1-3.47Z" transform="translate(-5.595)" fill="#4caa47"/>
    <path id="Path_4" data-name="Path 4" d="M138.378,67.177H132.4V50.04L128.9,67.177h-4.62l-4-17.137V67.177h-5.238V36.649h8.622l3.066,15.839,2.661-15.839h8.984Z" transform="translate(-8.075)" fill="#fff"/>
    <path id="Path_5" data-name="Path 5" d="M161.79,67.177h-6.645l-1.132-8.2h-2.976l-1.145,8.2h-6.645l5.015-30.528h8.5Zm-8.317-12.432-.965-9.112-.914,9.112Z" transform="translate(-11.88)" fill="#fff"/>
    <path id="Path_6" data-name="Path 6" d="M182.659,67.177h-7.371l-2.571-11.3v11.3h-6.705V36.649h6.705v10.2l2.937-10.2h6.217l-4.13,13.923Z" transform="translate(-14.951)" fill="#fff"/>
    <path id="Path_7" data-name="Path 7" d="M199.476,67.177H186.362V36.649H199.39v3.917h-6.322v8.261h5.705v3.7h-5.705V63.26h6.408Z" transform="translate(-17.697)" fill="#fff"/>
    <path id="Path_8" data-name="Path 8" d="M219.852,67.177h-6.9L208.4,50.912V67.177h-5.6V36.649h7.621l3.832,13.923V36.649h5.6Z" transform="translate(-19.915)" fill="#fff"/>
    <path id="Path_9" data-name="Path 9" d="M224.161,67.177V36.649h7.9a9.177,9.177,0,0,1,4.917,1.288,4.479,4.479,0,0,1,2.087,4.119v4.236q0,3.215-3.917,4.535,4.13,1.021,4.13,4.407v5.918a5.331,5.331,0,0,1-1.969,4.524,7.524,7.524,0,0,1-4.694,1.5Zm8.579-19.8V42.167q0-1.6-1.873-1.6V49Q232.74,49,232.74,47.375Zm0,14.267V53.914q0-1.6-1.873-1.6V63.26Q232.74,63.26,232.74,61.642Z" transform="translate(-22.797)" fill="#4caa47"/>
    <path id="Path_10" data-name="Path 10" d="M259.882,67.22h-6.705q-1.086-1.3-1.087-7.366v-.042l.043-1.831q.064-3.81.063-3.9,0-1.553-2.086-1.554V67.177H243.4V36.649h8.281a9.168,9.168,0,0,1,4.928,1.3,4.475,4.475,0,0,1,2.1,4.108v3.662q0,3.555-4.152,4.811,4.173.98,4.173,5.046l-.107,3.342Q258.626,66.241,259.882,67.22ZM252.176,47.2V42.167q0-1.6-2.065-1.6v8.261Q252.176,48.827,252.176,47.2Z" transform="translate(-25.394)" fill="#4caa47"/>
    <path id="Path_11" data-name="Path 11" d="M270.094,67.177h-6.706V36.649h6.706Z" transform="translate(-28.09)" fill="#4caa47"/>
    <path id="Path_12" data-name="Path 12" d="M285.346,67.177H272.764V36.649h6.706V63.26h5.876Z" transform="translate(-29.355)" fill="#4caa47"/>
    <path id="Path_13" data-name="Path 13" d="M301.169,67.177H288.587V36.649h6.706V63.26h5.876Z" transform="translate(-31.49)" fill="#4caa47"/>
    <path id="Path_14" data-name="Path 14" d="M317.451,67.177H304.336V36.649h13.029v3.917h-6.323v8.261h5.706v3.7h-5.706V63.26h6.408Z" transform="translate(-33.615)" fill="#4caa47"/>
    <path id="Path_15" data-name="Path 15" d="M337.827,67.177h-6.9l-4.555-16.264V67.177h-5.6V36.649H328.4l3.832,13.923V36.649h5.6Z" transform="translate(-35.833)" fill="#4caa47"/>
    <path id="Path_16" data-name="Path 16" d="M347.548,71.244h-5.536V66.795h5.536Z" transform="translate(-38.698 -4.067)" fill="#fff"/>
    <path id="Path_17" data-name="Path 17" d="M366.989,67.177h-6.9l-4.555-16.264V67.177h-5.6V36.649h7.621l3.831,13.923V36.649h5.6Z" transform="translate(-39.768)" fill="#fff"/>
    <path id="Path_18" data-name="Path 18" d="M384,67.177H371.42V36.649h6.706V63.26H384Z" transform="translate(-42.666)" fill="#fff"/>
  </g>
</svg>
