<svg xmlns="http://www.w3.org/2000/svg" width="60.417" height="60.417" viewBox="0 0 60.417 60.417">
  <g id="Group_2" data-name="Group 2" transform="translate(0.614 0.504)">
    <path id="Path_19" data-name="Path 19" d="M112.423,1100.576c5.5,7.567,2.04,17.382,1.667,13.887-.1-.9-4.911-13.032-12.957-20.89-.9-.88,9.118,9.95,12.428,21.079,2.191,7.366,4.58,18.142,4.5,18.095-.113-.064-.228.161-.453,0-.265-.189-4.44-17.915-4.457-17.943-.138-.228-7.029-1.253-11.019-6.739-5.5-7.567.233-10.469-4.818-17.446C86.758,1076.045,106.919,1093.009,112.423,1100.576Z" transform="translate(-85.692 -1076.827)" fill="none" stroke="#4caa47" stroke-width="1.417"/>
    <path id="Path_20" data-name="Path 20" d="M138.825,1103.33c-4.135,5.685-1.532,13.059-1.253,10.433a44.842,44.842,0,0,1,9.735-15.695c.677-.661-6.85,7.475-9.337,15.836-1.646,5.534-3.441,13.63-3.377,13.594.085-.048.171.121.341,0,.2-.142,3.336-13.459,3.349-13.481.1-.172,5.28-.942,8.277-5.063,4.135-5.685-.175-7.865,3.62-13.106C158.106,1084.9,142.96,1097.645,138.825,1103.33Z" transform="translate(-101.911 -1079.506)" fill="none" stroke="#4caa47" stroke-width="1.417"/>
    <circle id="Ellipse_1" data-name="Ellipse 1" cx="29.5" cy="29.5" r="29.5" transform="translate(0.095 0.205)" fill="none" stroke="#4caa47" stroke-width="1.417"/>
  </g>
</svg>
