<svg xmlns="http://www.w3.org/2000/svg" width="28.585" height="27.819" viewBox="0 0 28.585 27.819">
  <g id="shopping-cart" transform="translate(0 -6.028)">
    <g id="Group_7" data-name="Group 7" transform="translate(0 6.028)">
      <g id="Group_6" data-name="Group 6" transform="translate(0 0)">
        <path id="Path_39" data-name="Path 39" d="M99.637,350.322a2.984,2.984,0,1,0,2.984,2.984A2.984,2.984,0,0,0,99.637,350.322Zm0,4.642a1.658,1.658,0,1,1,1.658-1.658A1.658,1.658,0,0,1,99.637,354.964Z" transform="translate(-90.519 -328.471)" fill="#fff"/>
        <path id="Path_40" data-name="Path 40" d="M298.168,350.322a2.984,2.984,0,1,0,2.984,2.984A2.984,2.984,0,0,0,298.168,350.322Zm0,4.642a1.658,1.658,0,1,1,1.658-1.658A1.658,1.658,0,0,1,298.168,354.964Z" transform="translate(-276.45 -328.471)" fill="#fff"/>
        <path id="Path_41" data-name="Path 41" d="M28.449,10.471a.829.829,0,0,0-.531-.265l-21.586-.3-.6-1.824A3.051,3.051,0,0,0,2.885,6.028H.663a.663.663,0,0,0,0,1.326H2.885A1.724,1.724,0,0,1,4.476,8.515l4.211,12.7-.332.763a3.183,3.183,0,0,0,.3,2.885,3.084,3.084,0,0,0,2.487,1.393h12.9a.663.663,0,1,0,0-1.326h-12.9a1.691,1.691,0,0,1-1.393-.8,1.824,1.824,0,0,1-.166-1.592l.265-.6,13.959-1.459a3.647,3.647,0,0,0,3.15-2.785l1.592-6.665A.564.564,0,0,0,28.449,10.471ZM25.664,17.4a2.255,2.255,0,0,1-2.023,1.757L9.848,20.584l-3.084-9.35,20.326.3Z" transform="translate(0 -6.028)" fill="#fff"/>
      </g>
    </g>
  </g>
</svg>
